<svg width="44" height="43" viewBox="0 0 44 43" fill="none" xmlns="http://www.w3.org/2000/svg">
<path fill-rule="evenodd" clip-rule="evenodd" d="M21.7173 -1.0699e-05C9.72533 -1.0699e-05 0 9.72398 0 21.72C0 31.316 6.22267 39.456 14.8533 42.328C15.94 42.528 16.336 41.8573 16.336 41.2813C16.336 40.7653 16.3173 39.4 16.3067 37.588C10.2653 38.9 8.99067 34.676 8.99067 34.676C8.00267 32.1666 6.57868 31.4987 6.57868 31.4987C4.60668 30.152 6.72801 30.1787 6.72801 30.1787C8.90801 30.332 10.0547 32.4173 10.0547 32.4173C11.992 35.736 15.1387 34.7773 16.376 34.2213C16.5733 32.8186 17.1347 31.8613 17.7547 31.3186C12.932 30.7706 7.86134 28.9067 7.86134 20.584C7.86134 18.2133 8.70801 16.2733 10.0973 14.756C9.87335 14.2066 9.12801 11.9973 10.3107 9.00798C10.3107 9.00798 12.1333 8.42399 16.2827 11.2347C18.0147 10.752 19.8733 10.512 21.72 10.5026C23.5653 10.512 25.4227 10.752 27.1573 11.2347C31.304 8.42399 33.124 9.00798 33.124 9.00798C34.3093 11.9973 33.564 14.2066 33.3413 14.756C34.7333 16.2733 35.5733 18.2133 35.5733 20.584C35.5733 28.928 30.4947 30.764 25.6573 31.3013C26.436 31.972 27.1307 33.2973 27.1307 35.3226C27.1307 38.2266 27.104 40.5693 27.104 41.2813C27.104 41.8627 27.496 42.5386 28.5973 42.3266C37.2213 39.448 43.4387 31.3133 43.4387 21.72C43.4387 9.72398 33.7133 -1.0699e-05 21.7173 -1.0699e-05" fill="white"/>
</svg>
