<svg width="34" height="34" viewBox="0 0 34 34" fill="none" xmlns="http://www.w3.org/2000/svg">
<path d="M16.5097 33.0193C25.6277 33.0193 33.0193 25.6277 33.0193 16.5097C33.0193 7.39162 25.6277 0 16.5097 0C7.39162 0 0 7.39162 0 16.5097C0 25.6277 7.39162 33.0193 16.5097 33.0193Z" fill="white"/>
<path d="M27.5161 16.5097C27.5161 15.1774 26.4347 14.096 25.1024 14.096C24.4459 14.096 23.8666 14.347 23.4418 14.7719C21.8005 13.594 19.5219 12.8216 17.0117 12.725L18.1123 7.56939L21.6846 8.32246C21.7232 9.23001 22.4763 9.96378 23.4032 9.96378C24.3493 9.96378 25.1217 9.19139 25.1217 8.24523C25.1217 7.29906 24.3493 6.52667 23.4032 6.52667C22.7273 6.52667 22.148 6.91286 21.8777 7.49215L17.8806 6.64253C17.7648 6.62322 17.6489 6.64253 17.5524 6.70046C17.4558 6.75839 17.3979 6.85494 17.3593 6.97079L16.1428 12.725C13.5746 12.8023 11.2768 13.5554 9.61615 14.7719C9.19134 14.3664 8.59274 14.096 7.95553 14.096C6.62317 14.096 5.54184 15.1774 5.54184 16.5097C5.54184 17.4945 6.12113 18.3248 6.97074 18.711C6.93213 18.9427 6.91282 19.1937 6.91282 19.4448C6.91282 23.1522 11.2188 26.1452 16.5483 26.1452C21.8777 26.1452 26.1837 23.1522 26.1837 19.4448C26.1837 19.1937 26.1644 18.962 26.1258 18.7303C26.9175 18.3441 27.5161 17.4945 27.5161 16.5097ZM11.0064 18.2283C11.0064 17.2821 11.7788 16.5097 12.725 16.5097C13.6712 16.5097 14.4435 17.2821 14.4435 18.2283C14.4435 19.1744 13.6712 19.9468 12.725 19.9468C11.7788 19.9468 11.0064 19.1744 11.0064 18.2283ZM20.6033 22.766C19.4254 23.9439 17.1855 24.0211 16.529 24.0211C15.8724 24.0211 13.6132 23.9246 12.4546 22.766C12.2809 22.5922 12.2809 22.3026 12.4546 22.1288C12.6284 21.955 12.9181 21.955 13.0919 22.1288C13.8256 22.8626 15.409 23.1329 16.5483 23.1329C17.6875 23.1329 19.2516 22.8626 20.0047 22.1288C20.1785 21.955 20.4681 21.955 20.6419 22.1288C20.7771 22.3219 20.7771 22.5922 20.6033 22.766ZM20.2943 19.9468C19.3482 19.9468 18.5758 19.1744 18.5758 18.2283C18.5758 17.2821 19.3482 16.5097 20.2943 16.5097C21.2405 16.5097 22.0129 17.2821 22.0129 18.2283C22.0129 19.1744 21.2405 19.9468 20.2943 19.9468Z" fill="black"/>
</svg>
