<svg height="384pt" viewBox="0 -72 384 384" width="384pt" xmlns="http://www.w3.org/2000/svg"><path d="m368 208h-16v-112c0-35.289062-28.710938-64-64-64h-16v-16c0-8.832031-7.167969-16-16-16s-16 7.167969-16 16v16h-32v-16c0-8.832031-7.167969-16-16-16s-16 7.167969-16 16v16h-32v-16c0-8.832031-7.167969-16-16-16s-16 7.167969-16 16v16h-16c-35.289062 0-64 28.710938-64 64v38.710938.007812 73.28125h-16c-8.832031 0-16 7.167969-16 16s7.167969 16 16 16h352c8.832031 0 16-7.167969 16-16s-7.167969-16-16-16zm-304-112c0-17.648438 14.351562-32 32-32h192c17.648438 0 32 14.351562 32 32v16c-10.160156 0-20.121094 4.128906-27.3125 11.328125-2.488281 2.488281-6.886719 2.488281-9.375 0-7.191406-7.199219-17.152344-11.328125-27.3125-11.328125s-20.121094 4.128906-27.3125 11.328125c-2.488281 2.488281-6.886719 2.488281-9.375 0-7.191406-7.199219-17.152344-11.328125-27.3125-11.328125s-20.121094 4.128906-27.3125 11.328125c-2.488281 2.488281-6.886719 2.488281-9.375 0-7.191406-7.199219-17.152344-11.328125-27.3125-11.328125s-20.121094 4.128906-27.3125 11.328125c-2.488281 2.488281-6.945312 2.433594-9.320312.054687-7.289063-7.351562-17-11.40625-27.367188-11.40625zm0 112v-64.023438c1.015625 0 2.976562.246094 4.6875 1.976563 7.191406 7.199219 17.152344 11.328125 27.3125 11.328125s20.121094-4.128906 27.3125-11.328125c2.488281-2.488281 6.886719-2.488281 9.375 0 7.191406 7.199219 17.152344 11.328125 27.3125 11.328125s20.121094-4.128906 27.3125-11.328125c2.488281-2.488281 6.886719-2.488281 9.375 0 7.191406 7.199219 17.160156 11.328125 27.3125 11.328125s20.121094-4.128906 27.3125-11.328125c2.488281-2.488281 6.886719-2.488281 9.375 0 7.191406 7.199219 17.160156 11.328125 27.3125 11.328125s20.121094-4.128906 27.3125-11.328125c1.238281-1.242187 2.96875-1.863281 4.6875-1.863281v63.910156zm0 0"/></svg>